Patient4_TMGait_0pt5_01_left_09_GRF.mot
version=1
nRows=26
nColumns=19
inDegrees=no
endheader
time	F1x	F1y	F1z	M1x	M1y	M1z	F2x	F2y	F2z	M2x	M2y	M2z	EC1x	EC1y	EC1z	EC2x	EC2y	EC2z
12.1	9.4286	7.0517	-4.8359	-1.7145	5.9621	0.59814	-32.9693	718.0029	-49.5327	275.5649	53.0742	564.2054	-0.0592	0.0182	-0.0073	-0.0462	0.0165	0.9585
12.1131	6.0641	5.0335	-3.24	-1.2574	3.8877	0.77927	-31.4376	722.202	-48.3919	278.0384	50.8503	562.8347	-0.0592	0.0182	-0.0073	-0.0462	0.0165	0.9585
12.1261	3.2343	3.3242	-1.9044	-0.87639	2.1463	0.92065	-29.0442	728.0576	-46.9874	281.2305	48.2161	561.8302	-0.0592	0.0182	-0.0073	-0.0462	0.0165	0.9585
12.1392	1.0869	2.0349	-0.88512	-0.59455	0.81245	1.0393	-25.7841	735.3706	-45.4252	285.0352	45.2861	561.1842	-0.0592	0.0182	-0.0073	-0.0462	0.0165	0.9585
12.1523	-0.39665	1.1612	-0.1848	-0.40793	-0.11395	1.1341	-21.7108	743.6926	-43.8238	289.2621	42.1683	560.6962	-0.0592	0.0182	-0.0073	-0.0462	0.0165	0.9585
12.1654	-1.3187	0.63048	0.25464	-0.29569	-0.70098	1.189	-16.9074	752.4347	-42.2886	293.6711	38.9506	560.0627	-0.0592	0.0182	-0.0073	-0.0462	0.0165	0.9585
12.1784	-1.8275	0.35066	0.48634	-0.23307	-1.0219	1.2035	-11.4905	760.9769	-40.9088	298.0047	35.7058	558.9562	-0.0592	0.0182	-0.0073	-0.0462	0.0165	0.9585
12.1915	-2.0534	0.20406	0.57792	-0.18786	-1.1595	1.1413	-5.6169	768.7239	-39.764	302.0068	32.5088	557.0708	-0.0592	0.0182	-0.0073	-0.0462	0.0165	0.9585
12.2046	-2.123	0.084437	0.57878	-0.13034	-1.1839	0.9818	0.48835	775.1664	-38.9237	305.4459	29.4536	554.1914	-0.0592	0.0182	-0.0073	-0.0462	0.0165	0.9585
12.2176	-2.1157	-0.1273	0.5392	-0.026772	-1.1569	0.6697	6.5483	779.8761	-38.4302	308.1202	26.6424	550.1847	-0.0592	0.0182	-0.0073	-0.0462	0.0165	0.9585
12.2307	-2.0905	-0.53527	0.49261	0.15322	-1.1213	0.17058	12.238	782.5608	-38.2748	309.8813	24.1648	545.0435	-0.0592	0.0182	-0.0073	-0.0462	0.0165	0.9585
12.2438	-2.0731	-1.2218	0.46177	0.43478	-1.0995	-0.54913	17.2464	783.0882	-38.3968	310.649	22.0733	538.8653	-0.0592	0.0182	-0.0073	-0.0462	0.0165	0.9585
12.2569	-2.049	-2.2363	0.45133	0.83233	-1.0872	-1.5142	21.323	781.487	-38.7092	310.4128	20.3882	531.8389	-0.0592	0.0182	-0.0073	-0.0462	0.0165	0.9585
12.2699	-1.9754	-3.5557	0.45069	1.3368	-1.0597	-2.7018	24.3189	777.8919	-39.1448	309.2148	19.1215	524.1789	-0.0592	0.0182	-0.0073	-0.0462	0.0165	0.9585
12.283	-1.7744	-5.0572	0.44088	1.9033	-0.97362	-4.0264	26.2131	772.5886	-39.6493	307.1666	18.2521	516.1291	-0.0592	0.0182	-0.0073	-0.0462	0.0165	0.9585
12.2961	-1.3554	-6.4639	0.38535	2.4293	-0.76433	-5.2602	27.0966	766.066	-40.2034	304.4674	17.7447	508.0109	-0.0592	0.0182	-0.0073	-0.0462	0.0165	0.9585
12.3091	-0.59658	-7.3092	0.24152	2.7401	-0.35347	-6.0186	27.1545	758.9715	-40.8072	301.3865	17.5431	500.1898	-0.0592	0.0182	-0.0073	-0.0462	0.0165	0.9585
12.3222	0.61494	-6.8665	-0.044354	2.5638	0.34418	-5.6847	26.6348	752.0148	-41.4847	298.222	17.5822	493.0379	-0.0592	0.0182	-0.0073	-0.0462	0.0165	0.9585
12.3353	2.3637	-4.1441	-0.5261	1.5259	1.4075	-3.4221	25.8303	745.8238	-42.2657	295.2412	17.781	486.8515	-0.0592	0.0182	-0.0073	-0.0462	0.0165	0.9585
12.3484	4.6663	2.105	-1.2523	-0.84498	2.8825	1.8382	24.9972	740.7761	-43.1826	292.6102	18.0695	481.7689	-0.0592	0.0182	-0.0073	-0.0462	0.0165	0.9585
12.3614	7.3956	13.2713	-2.2457	-5.074	4.7336	11.2951	24.3295	736.8123	-44.2518	290.3229	18.3931	477.6538	-0.0592	0.0182	-0.0073	-0.0462	0.0165	0.9585
12.3745	10.214	30.6538	-3.4775	-11.6511	6.8042	26.0696	23.9243	733.3772	-45.4383	288.1775	18.7051	474.0853	-0.0592	0.0182	-0.0073	-0.0462	0.0165	0.9585
12.3876	12.459	55.0652	-4.8263	-20.8759	8.7418	46.8878	23.7704	729.4559	-46.6295	285.793	18.9496	470.3797	-0.0592	0.0182	-0.0073	-0.0462	0.0165	0.9585
12.4006	13.1761	86.2759	-6.0706	-32.6517	9.9956	73.598	23.7777	723.7225	-47.647	282.6713	19.0638	465.6736	-0.0592	0.0182	-0.0073	-0.0462	0.0165	0.9585
12.4137	11.3926	122.4733	-6.8945	-46.2823	9.9374	104.7245	23.7898	714.7897	-48.273	278.2965	18.9887	459.086	-0.0592	0.0182	-0.0073	-0.0462	0.0165	0.9585
12.4268	7.092	160.0818	-6.8633	-60.3945	8.1899	137.2456	23.6483	701.4957	-48.3067	272.2508	18.6833	449.8675	-0.0592	0.0182	-0.0073	-0.0462	0.0165	0.9585
